<svg width="24" height="24" viewBox="0 0 24 24" fill="none"
    xmlns="http://www.w3.org/2000/svg">
    <g clip-path="url(#clip0_403_3408)">
        <path d="M14 24.0003C10.8184 23.9969 7.76816 22.7315 5.51847 20.4818C3.26878 18.2321 2.00339 15.1819 1.99995 12.0003C1.84695 3.04432 12.0309 -2.98468 19.791 1.50932L21.344 2.37132L19.801 3.25132C13.101 6.93932 13.5909 17.1213 20.601 20.1573L22.222 20.8883L20.7549 21.8943C18.7683 23.2638 16.4129 23.9981 14 24.0003ZM14 2.00032C11.3487 2.00323 8.80683 3.05774 6.9321 4.93247C5.05736 6.8072 4.00286 9.34905 3.99995 12.0003C3.84495 19.1173 11.7629 24.2003 18.155 21.0823C16.6585 20.078 15.4179 18.7373 14.5327 17.1675C13.6474 15.5977 13.1419 13.8424 13.0568 12.0422C12.9716 10.242 13.3091 8.44689 14.0423 6.80054C14.7755 5.15419 15.884 3.70237 17.2789 2.56132C16.2262 2.18777 15.117 1.998 14 2.00032Z" fill="#374957"/>
    </g>
    <defs>
        <clipPath id="clip0_403_3408">
            <rect width="24" height="24" fill="white"/>
        </clipPath>
    </defs>
</svg>
    