<svg width="24" height="24" viewBox="0 0 24 24" fill="none"
    xmlns="http://www.w3.org/2000/svg">
    <path d="M18.0001 11.9999C17.9952 11.4738 17.7832 10.9708 17.4101 10.5999L13.1201 6.29995C12.9327 6.1137 12.6792 6.00916 12.4151 6.00916C12.1509 6.00916 11.8974 6.1137 11.7101 6.29995C11.6163 6.39291 11.5419 6.50351 11.4912 6.62537C11.4404 6.74723 11.4143 6.87794 11.4143 7.00995C11.4143 7.14196 11.4404 7.27266 11.4912 7.39452C11.5419 7.51638 11.6163 7.62698 11.7101 7.71995L15.0001 10.9999H5.00006C4.73484 10.9999 4.48049 11.1053 4.29295 11.2928C4.10542 11.4804 4.00006 11.7347 4.00006 11.9999C4.00006 12.2652 4.10542 12.5195 4.29295 12.707C4.48049 12.8946 4.73484 12.9999 5.00006 12.9999H15.0001L11.7101 16.2899C11.5218 16.4769 11.4154 16.731 11.4145 16.9964C11.4136 17.2618 11.5181 17.5166 11.7051 17.7049C11.892 17.8932 12.1462 17.9996 12.4115 18.0005C12.6769 18.0014 12.9318 17.8969 13.1201 17.7099L17.4101 13.4099C17.7856 13.0366 17.9978 12.5295 18.0001 11.9999Z" fill="#374957"/>
</svg>
    