<svg width="24" height="24" viewBox="0 0 24 24" fill="none"
    xmlns="http://www.w3.org/2000/svg">
    <g clip-path="url(#clip0_11_1200)">
        <path d="M21 3H3C1.9 3 1 3.9 1 5V19C1 20.1 1.9 21 3 21H21C22.1 21 23 20.1 23 19V5C23 3.9 22.1 3 21 3ZM20 19H4C3.45 19 3 18.55 3 18V6C3 5.45 3.45 5 4 5H13V8C13 8.55 13.45 9 14 9H21V18C21 18.55 20.55 19 20 19Z" fill="#323232"/>
    </g>
    <defs>
        <clipPath id="clip0_11_1200">
            <rect width="24" height="24" fill="white"/>
        </clipPath>
    </defs>
</svg>
    