<svg width="24" height="24" viewBox="0 0 24 24" fill="none"
    xmlns="http://www.w3.org/2000/svg">
    <g clip-path="url(#clip0_403_3199)">
        <path d="M13.0001 20.0001C14.3257 19.9986 15.5966 19.4713 16.5339 18.5339C17.4712 17.5966 17.9985 16.3257 18.0001 15.0001V6.24314C18.0017 5.7175 17.8989 5.19678 17.6977 4.71116C17.4965 4.22554 17.2009 3.78468 16.8281 3.41414L14.5861 1.17214C14.2156 0.799313 13.7747 0.503742 13.2891 0.30256C12.8035 0.101377 12.2828 -0.00141588 11.7571 0.00013946H7.00012C5.67453 0.00172732 4.40368 0.529021 3.46634 1.46636C2.529 2.4037 2.00171 3.67454 2.00012 5.00014V15.0001C2.00171 16.3257 2.529 17.5966 3.46634 18.5339C4.40368 19.4713 5.67453 19.9986 7.00012 20.0001H13.0001ZM4.00012 15.0001V5.00014C4.00012 4.20449 4.31619 3.44143 4.8788 2.87882C5.44141 2.31621 6.20447 2.00014 7.00012 2.00014C7.00012 2.00014 11.9191 2.01414 12.0001 2.02414V4.00014C12.0001 4.53057 12.2108 5.03928 12.5859 5.41435C12.961 5.78943 13.4697 6.00014 14.0001 6.00014H15.9761C15.9861 6.08114 16.0001 15.0001 16.0001 15.0001C16.0001 15.7958 15.6841 16.5589 15.1214 17.1215C14.5588 17.6841 13.7958 18.0001 13.0001 18.0001H7.00012C6.20447 18.0001 5.44141 17.6841 4.8788 17.1215C4.31619 16.5589 4.00012 15.7958 4.00012 15.0001ZM22.0001 8.00014V19.0001C21.9985 20.3257 21.4712 21.5966 20.5339 22.5339C19.5966 23.4713 18.3257 23.9986 17.0001 24.0001H8.00012C7.73491 24.0001 7.48055 23.8948 7.29302 23.7072C7.10548 23.5197 7.00012 23.2654 7.00012 23.0001C7.00012 22.7349 7.10548 22.4806 7.29302 22.293C7.48055 22.1055 7.73491 22.0001 8.00012 22.0001H17.0001C17.7958 22.0001 18.5588 21.6841 19.1214 21.1215C19.6841 20.5589 20.0001 19.7958 20.0001 19.0001V8.00014C20.0001 7.73492 20.1055 7.48057 20.293 7.29303C20.4806 7.1055 20.7349 7.00014 21.0001 7.00014C21.2653 7.00014 21.5197 7.1055 21.7072 7.29303C21.8948 7.48057 22.0001 7.73492 22.0001 8.00014Z" fill="#374957"/>
    </g>
    <defs>
        <clipPath id="clip0_403_3199">
            <rect width="24" height="24" fill="white"/>
        </clipPath>
    </defs>
</svg>
    