<svg width="24" height="24" viewBox="0 0 24 24" fill="none"
    xmlns="http://www.w3.org/2000/svg">
    <g clip-path="url(#clip0_403_3081)">
        <path d="M18.7462 20.334C18.8337 20.4321 18.9011 20.5464 18.9444 20.6705C18.9877 20.7947 19.0062 20.9261 18.9986 21.0573C18.9911 21.1886 18.9578 21.317 18.9006 21.4354C18.8434 21.5537 18.7634 21.6596 18.6652 21.747L17.0792 23.161C16.8074 23.43 16.4852 23.6427 16.131 23.7867C15.7767 23.9306 15.3975 24.0032 15.0152 24C14.6186 24.0008 14.2258 23.9233 13.8593 23.772C13.4927 23.6206 13.1597 23.3984 12.8792 23.118L11.3352 21.744C11.2371 21.6567 11.1571 21.5509 11.0999 21.4327C11.0427 21.3145 11.0094 21.1861 11.0017 21.055C10.9864 20.7902 11.0768 20.5302 11.2532 20.332C11.4296 20.1339 11.6774 20.014 11.9422 19.9986C12.0733 19.991 12.2046 20.0093 12.3287 20.0524C12.4527 20.0956 12.5671 20.1627 12.6652 20.25L14.0002 21.444V14C14.0002 13.7348 14.1055 13.4805 14.2931 13.2929C14.4806 13.1054 14.735 13 15.0002 13C15.2654 13 15.5198 13.1054 15.7073 13.2929C15.8948 13.4805 16.0002 13.7348 16.0002 14V21.445L17.3352 20.253C17.5331 20.0768 17.7929 19.9864 18.0574 20.0016C18.322 20.0168 18.5697 20.1363 18.7462 20.334ZM18.3562 7.36103C18.1845 7.30772 18.0287 7.21268 17.9027 7.08441C17.7767 6.95615 17.6844 6.79866 17.6342 6.62603C17.1047 4.92612 16.0233 3.45142 14.5611 2.43545C13.099 1.41947 11.3397 0.920281 9.56188 1.01693C7.78404 1.11357 6.08925 1.80053 4.74586 2.96902C3.40248 4.1375 2.48728 5.72074 2.14518 7.46803C1.79417 9.23505 2.07744 11.0692 2.94518 12.648C1.93363 13.1703 1.11109 13.9963 0.593099 15.01C0.0751089 16.0238 -0.112305 17.1743 0.0571826 18.3C0.317834 19.6078 1.018 20.7871 2.0414 21.6421C3.0648 22.4971 4.34986 22.9762 5.68318 23H8.00018C8.2654 23 8.51975 22.8947 8.70729 22.7071C8.89482 22.5196 9.00018 22.2653 9.00018 22C9.00018 21.7348 8.89482 21.4805 8.70729 21.2929C8.51975 21.1054 8.2654 21 8.00018 21H5.68318C4.82914 20.9836 4.00538 20.6807 3.34417 20.1399C2.68296 19.5992 2.22266 18.8519 2.03718 18.018C1.92859 17.3016 2.04708 16.5691 2.37601 15.9235C2.70493 15.2778 3.22779 14.7514 3.87118 14.418C4.32977 14.1646 4.67011 13.7407 4.81852 13.2382C4.96694 12.7357 4.91149 12.195 4.66418 11.733C4.27589 10.9925 4.04668 10.179 3.99124 9.34462C3.9358 8.51029 4.05537 7.67358 4.34227 6.88817C4.62916 6.10276 5.07706 5.38598 5.65723 4.78383C6.23739 4.18167 6.93701 3.70743 7.71121 3.39152C8.48541 3.07561 9.31709 2.92501 10.1529 2.94938C10.9887 2.97375 11.8102 3.17255 12.5647 3.53303C13.3192 3.89351 13.99 4.40771 14.5341 5.04265C15.0782 5.67759 15.4835 6.41924 15.7242 7.22003C15.8722 7.70274 16.1358 8.142 16.4922 8.49962C16.8486 8.85723 17.287 9.12239 17.7692 9.27204C19.0755 9.66953 20.2061 10.5027 20.9725 11.6328C21.739 12.7628 22.095 14.1214 21.9812 15.482C21.9059 16.5401 21.5193 17.5522 20.8702 18.391C20.7085 18.6014 20.6371 18.8673 20.6715 19.1303C20.7059 19.3933 20.8434 19.6319 21.0537 19.7935C21.264 19.9552 21.5299 20.0267 21.7929 19.9923C22.056 19.9578 22.2945 19.8204 22.4562 19.61C23.3372 18.4614 23.8653 17.0814 23.9762 15.638C24.1272 13.8237 23.6517 12.0125 22.629 10.5063C21.6064 9.00007 20.0982 7.88996 18.3562 7.36103Z" fill="#374957"/>
    </g>
    <defs>
        <clipPath id="clip0_403_3081">
            <rect width="24" height="24" fill="white"/>
        </clipPath>
    </defs>
</svg>
    