<svg xmlns="http://www.w3.org/2000/svg" version="1.1"
    xmlns:xlink="http://www.w3.org/1999/xlink" width="512" height="512" x="0" y="0" viewBox="0 0 64 64" style="enable-background:new 0 0 512 512" xml:space="preserve" class="">
    <g>
        <g style="fill:none;stroke:#2c3e50;stroke-linecap:round;stroke-linejoin:round;stroke-miterlimit:10;stroke-width:2">
            <path d="M40 43c0 1.1-.9 2-2 2H27c-1.1 0-2-.9-2-2H8v2c0 2.2 1.8 4 4 4h40c2.2 0 4-1.8 4-4v-2zM53 43V19c0-2.2-1.8-4-4-4H15c-2.2 0-4 1.8-4 4v24" fill="#000000" opacity="1" data-original="#000000" class=""></path>
            <path d="M15 40V19h34v21" fill="#000000" opacity="1" data-original="#000000" class=""></path>
            <path d="M32.7 26.6c-.2.1-.4.1-.8.1 0-.7.2-1.3.6-1.9.4-.5 1-.9 1.8-1.1 0 .3 0 .9-.2 1.3-.1.4-.4.7-.7 1-.2.4-.5.5-.7.6zm3.2 7.4c-.3-.5-.5-1-.5-1.6 0-.5.2-1 .5-1.5.2-.2.4-.5.8-.9-.3-.3-.5-.5-.8-.7-.5-.3-1-.5-1.5-.5-.3 0-.8.1-1.2.2-.5.2-.8.2-1 .2s-.5-.1-1-.2-.9-.2-1.3-.2c-.8 0-1.5.3-2.1 1-.5.7-.8 1.6-.8 2.7 0 1.2.4 2.4 1.1 3.6s1.4 1.9 2.2 1.9c.2 0 .6-.1 1-.2.4-.2.7-.2 1-.2s.7.1 1.1.2c.4.2.8.2 1 .2.6 0 1.2-.5 1.9-1.4.4-.6.7-1.2.9-1.8-.6 0-1-.3-1.3-.8z" fill="#000000" opacity="1" data-original="#000000" class=""></path>
        </g>
    </g>
</svg>